<svg xmlns="http://www.w3.org/2000/svg" style="margin:auto;background:rgba(241, 242, 243, 0);display:block;" width="441" height="89" preserveAspectRatio="xMidYMid">
<style type="text/css">
  text {
    text-anchor: middle; font-size: 86px; opacity: 0;
  }
</style>
<g style="transform-origin: 220.5px 44.5px; transform: scale(0.914894);">
<g transform="translate(220.5,44.5)">
  <g transform="translate(-6,10)"><g class="path" style="transform: matrix(1, 0, 0, 1, 0, 0); transform-origin: -196.832px -11.2514px; animation: 1.17647s linear -0.857647s infinite normal forwards running tremble-0e106bb4-33ba-4351-b7da-4fdf94e7fd82;"><path d="M19.83-27.54L11.47-4.14L19.08-3.20L19.08-3.20Q19.46-1.79 19.08 0.28L19.08 0.28L19.08 0.28Q13.16 0 9.12 0L9.12 0L9.12 0Q6.86 0-1.03 0.19L-1.03 0.19L-1.03 0.19Q-1.60-1.50-1.03-3.20L-1.03-3.20L5.17-4.32L5.17-4.32Q6.67-6.58 8.93-12.69L8.93-12.69L33.18-77.55L36.47-77.55L63.73-4.14L71.35-3.20L71.35-3.20Q71.72-1.79 71.35 0.28L71.35 0.28L71.35 0.28Q65.42 0 58.09 0L58.09 0L58.09 0Q52.64 0 44.74 0.19L44.74 0.19L44.74 0.19Q44.18-1.50 44.74-3.20L44.74-3.20L52.55-4.32L44.27-27.54L19.83-27.54zM32.34-63.36L32.34-63.36L32.24-63.36L32.24-63.36Q31.11-58.94 28.58-51.79L28.58-51.79L21.53-32.24L42.58-32.24L35.72-51.79L35.72-51.79Q33.75-57.53 32.34-63.36" fill="#000000" stroke="none" stroke-width="none" transform="translate(-231.94246673583984,27.38356409072876)" style="fill: rgb(0, 0, 0);"></path></g><g class="path" style="transform: matrix(1, 0, 0, 1, 0, 0); transform-origin: -147.437px 1.53357px; animation: 1.17647s linear -0.762353s infinite normal forwards running tremble-0e106bb4-33ba-4351-b7da-4fdf94e7fd82;"><path d="M89.11-34.97L89.11-34.97L89.11-4.79L96.73-3.38L96.73-3.38Q96.82-2.91 96.87-2.54L96.87-2.54L96.87-2.54Q96.91-2.16 96.91-1.69L96.91-1.69L96.91-1.69Q96.91-1.22 96.87-0.70L96.87-0.70L96.87-0.70Q96.82-0.19 96.73 0.38L96.73 0.38L96.73 0.38Q90.80 0.09 84.60 0.09L84.60 0.09L84.60 0.09Q82.44 0.09 79.38 0.14L79.38 0.14L79.38 0.14Q76.33 0.19 72.38 0.28L72.38 0.28L72.38 0.28Q72.10-0.56 72.10-1.50L72.10-1.50L72.10-1.50Q72.10-2.35 72.38-3.38L72.38-3.38L79.81-4.42L79.81-4.42Q79.99-7.05 80.09-10.01L80.09-10.01L80.09-10.01Q80.18-12.97 80.18-16.36L80.18-16.36L80.18-36.38L80.18-36.38Q80.18-42.58 79.90-45.59L79.90-45.59L72.47-46.53L72.47-46.53Q72.29-47 72.29-48.13L72.29-48.13L72.29-48.13Q72.29-48.60 72.29-49.07L72.29-49.07L72.29-49.07Q72.29-49.54 72.47-50.10L72.47-50.10L72.47-50.10Q78.87-50.48 88.64-52.08L88.64-52.08L88.64-52.08Q89.49-51.14 89.58-50.20L89.58-50.20L89.58-50.20Q89.11-47.56 89.11-34.97" fill="#000000" stroke="none" stroke-width="none" transform="translate(-231.94246673583984,27.38356409072876)" style="fill: rgb(0, 0, 0);"></path></g><g class="path" style="transform: matrix(1, 0, 0, 1, 0, 0); transform-origin: -149.787px -42.7864px; animation: 1.17647s linear -0.667059s infinite normal forwards running tremble-0e106bb4-33ba-4351-b7da-4fdf94e7fd82;"><path d="M75.39-68.53L75.39-68.53L75.39-68.53Q75.20-69.00 75.20-69.51L75.20-69.51L75.20-69.51Q75.20-70.03 75.20-70.50L75.20-70.50L75.20-70.50Q75.20-73.04 77.31-74.59L77.31-74.59L77.31-74.59Q79.43-76.14 82.53-76.14L82.53-76.14L82.53-76.14Q85.45-76.14 87.28-74.40L87.28-74.40L87.28-74.40Q89.11-72.66 89.11-69.65L89.11-69.65L89.11-69.65Q89.11-67.21 87.00-65.71L87.00-65.71L87.00-65.71Q84.88-64.20 81.59-64.20L81.59-64.20L81.59-64.20Q79.34-64.20 77.60-65.33L77.60-65.33L77.60-65.33Q75.86-66.46 75.39-68.53" fill="#000000" stroke="none" stroke-width="none" transform="translate(-231.94246673583984,27.38356409072876)" style="fill: rgb(0, 0, 0);"></path></g><g class="path" style="transform: matrix(1, 0, 0, 1, 0, 0); transform-origin: -111.857px 1.53357px; animation: 1.17647s linear -0.571765s infinite normal forwards running tremble-0e106bb4-33ba-4351-b7da-4fdf94e7fd82;"><path d="M118.72-50.20L118.72-50.20L118.53-40.51L118.53-40.51Q120.88-44.84 125.07-48.46L125.07-48.46L125.07-48.46Q129.25-52.08 133.01-52.08L133.01-52.08L133.01-52.08Q135.92-52.08 138.18-51.42L138.18-51.42L138.18-51.42Q138.93-50.20 138.93-48.22L138.93-48.22L138.93-48.22Q138.93-45.12 137.62-42.02L137.62-42.02L137.62-42.02Q134.23-42.96 131.13-42.96L131.13-42.96L131.13-42.96Q123.42-42.96 118.44-35.44L118.44-35.44L118.25-18.99L118.25-4.79L128.69-3.38L128.69-3.38Q129.06-1.88 128.69 0.38L128.69 0.38L128.69 0.38Q122.76 0.09 115.15 0.09L115.15 0.09L115.15 0.09Q109.42 0.09 101.52 0.28L101.52 0.28L101.52 0.28Q100.96-1.50 101.52-3.38L101.52-3.38L108.95-4.42L108.95-4.42Q109.32-9.59 109.32-16.36L109.32-16.36L109.32-42.11L109.32-42.11Q109.32-43.99 109.04-45.59L109.04-45.59L101.61-46.53L101.61-46.53Q101.24-47.94 101.61-50.10L101.61-50.10L101.61-50.10Q108.10-50.57 117.78-52.08L117.78-52.08L117.78-52.08Q118.63-51.14 118.72-50.20" fill="#000000" stroke="none" stroke-width="none" transform="translate(-231.94246673583984,27.38356409072876)" style="fill: rgb(0, 0, 0);"></path></g><g class="path" style="transform: matrix(1, 0, 0, 1, 0, 0); transform-origin: -32.8025px -10.0264px; animation: 1.17647s linear -0.476471s infinite normal forwards running tremble-0e106bb4-33ba-4351-b7da-4fdf94e7fd82;"><path d="M228.14-13.91L228.14-13.91L228.14-13.91Q229.74-12.88 230.58-10.34L230.58-10.34L230.58-10.34Q217.52 1.88 204.07 1.88L204.07 1.88L204.07 1.88Q194.86 1.88 188-1.46L188-1.46L188-1.46Q181.14-4.79 176.63-10.29L176.63-10.29L176.63-10.29Q172.11-15.79 169.91-22.80L169.91-22.80L169.91-22.80Q167.70-29.80 167.70-37.13L167.70-37.13L167.70-37.13Q167.70-44.56 170.23-51.65L170.23-51.65L170.23-51.65Q172.77-58.75 177.66-64.34L177.66-64.34L177.66-64.34Q182.55-69.94 189.74-73.32L189.74-73.32L189.74-73.32Q196.93-76.70 206.14-76.70L206.14-76.70L206.14-76.70Q218.27-76.70 228.70-71.06L228.70-71.06L228.70-53.02L228.70-53.02Q227.01-52.73 225.69-52.73L225.69-52.73L225.69-52.73Q224.28-52.73 223.34-53.02L223.34-53.02L220.34-68.71L220.34-68.71Q214.60-72.47 205.01-72.47L205.01-72.47L205.01-72.47Q199.09-72.47 194.34-69.80L194.34-69.80L194.34-69.80Q189.60-67.12 186.26-62.56L186.26-62.56L186.26-62.56Q182.92-58.00 181.14-51.84L181.14-51.84L181.14-51.84Q179.35-45.68 179.35-38.73L179.35-38.73L179.35-38.73Q179.35-31.30 181.09-25.00L181.09-25.00L181.09-25.00Q182.83-18.71 186.03-14.10L186.03-14.10L186.03-14.10Q189.22-9.49 193.78-6.91L193.78-6.91L193.78-6.91Q198.34-4.32 203.98-4.32L203.98-4.32L203.98-4.32Q210.75-4.32 217.05-6.96L217.05-6.96L217.05-6.96Q223.34-9.59 228.14-13.91" fill="#000000" stroke="none" stroke-width="none" transform="translate(-231.94246673583984,27.38356409072876)" style="fill: rgb(0, 0, 0);"></path></g><g class="path" style="transform: matrix(1, 0, 0, 1, 0, 0); transform-origin: 29.4725px 2.28357px; animation: 1.17647s linear -0.381176s infinite normal forwards running tremble-0e106bb4-33ba-4351-b7da-4fdf94e7fd82;"><path d="M237.63-25.00L237.63-25.00L237.63-25.00Q237.63-30.64 239.28-35.58L239.28-35.58L239.28-35.58Q240.92-40.51 244.02-44.18L244.02-44.18L244.02-44.18Q247.13-47.85 251.50-49.96L251.50-49.96L251.50-49.96Q255.87-52.08 261.32-52.08L261.32-52.08L261.32-52.08Q266.68-52.08 271.10-49.96L271.10-49.96L271.10-49.96Q275.51-47.85 278.66-44.18L278.66-44.18L278.66-44.18Q281.81-40.51 283.50-35.58L283.50-35.58L283.50-35.58Q285.20-30.64 285.20-25.00L285.20-25.00L285.20-25.00Q285.20-19.18 283.46-14.29L283.46-14.29L283.46-14.29Q281.72-9.40 278.57-5.78L278.57-5.78L278.57-5.78Q275.42-2.16 271.00-0.14L271.00-0.14L271.00-0.14Q266.58 1.88 261.32 1.88L261.32 1.88L261.32 1.88Q255.77 1.88 251.40-0.09L251.40-0.09L251.40-0.09Q247.03-2.07 243.98-5.64L243.98-5.64L243.98-5.64Q240.92-9.21 239.28-14.15L239.28-14.15L239.28-14.15Q237.63-19.08 237.63-25.00zM251.36-42.30L251.36-42.30L251.36-42.30Q247.31-36.57 247.31-25.00L247.31-25.00L247.31-25.00Q247.31-19.27 248.40-14.95L248.40-14.95L248.40-14.95Q249.48-10.62 251.36-7.75L251.36-7.75L251.36-7.75Q253.24-4.89 255.77-3.48L255.77-3.48L255.77-3.48Q258.31-2.07 261.32-2.07L261.32-2.07L261.32-2.07Q264.23-2.07 266.87-3.48L266.87-3.48L266.87-3.48Q269.50-4.89 271.38-7.75L271.38-7.75L271.38-7.75Q273.26-10.62 274.39-14.95L274.39-14.95L274.39-14.95Q275.51-19.27 275.51-25.00L275.51-25.00L275.51-25.00Q275.51-30.74 274.39-35.11L274.39-35.11L274.39-35.11Q273.26-39.48 271.33-42.35L271.33-42.35L271.33-42.35Q269.40-45.21 266.82-46.67L266.82-46.67L266.82-46.67Q264.23-48.13 261.32-48.13L261.32-48.13L261.32-48.13Q255.49-48.13 251.36-42.30" fill="#000000" stroke="none" stroke-width="none" transform="translate(-231.94246673583984,27.38356409072876)" style="fill: rgb(0, 0, 0);"></path></g><g class="path" style="transform: matrix(1, 0, 0, 1, 0, 0); transform-origin: 85.1175px 2.28357px; animation: 1.17647s linear -0.285882s infinite normal forwards running tremble-0e106bb4-33ba-4351-b7da-4fdf94e7fd82;"><path d="M293.28-25.00L293.28-25.00L293.28-25.00Q293.28-30.64 294.93-35.58L294.93-35.58L294.93-35.58Q296.57-40.51 299.67-44.18L299.67-44.18L299.67-44.18Q302.77-47.85 307.14-49.96L307.14-49.96L307.14-49.96Q311.52-52.08 316.97-52.08L316.97-52.08L316.97-52.08Q322.33-52.08 326.74-49.96L326.74-49.96L326.74-49.96Q331.16-47.85 334.31-44.18L334.31-44.18L334.31-44.18Q337.46-40.51 339.15-35.58L339.15-35.58L339.15-35.58Q340.84-30.64 340.84-25.00L340.84-25.00L340.84-25.00Q340.84-19.18 339.11-14.29L339.11-14.29L339.11-14.29Q337.37-9.40 334.22-5.78L334.22-5.78L334.22-5.78Q331.07-2.16 326.65-0.14L326.65-0.14L326.65-0.14Q322.23 1.88 316.97 1.88L316.97 1.88L316.97 1.88Q311.42 1.88 307.05-0.09L307.05-0.09L307.05-0.09Q302.68-2.07 299.63-5.64L299.63-5.64L299.63-5.64Q296.57-9.21 294.93-14.15L294.93-14.15L294.93-14.15Q293.28-19.08 293.28-25.00zM307.00-42.30L307.00-42.30L307.00-42.30Q302.96-36.57 302.96-25.00L302.96-25.00L302.96-25.00Q302.96-19.27 304.04-14.95L304.04-14.95L304.04-14.95Q305.12-10.62 307.00-7.75L307.00-7.75L307.00-7.75Q308.88-4.89 311.42-3.48L311.42-3.48L311.42-3.48Q313.96-2.07 316.97-2.07L316.97-2.07L316.97-2.07Q319.88-2.07 322.51-3.48L322.51-3.48L322.51-3.48Q325.15-4.89 327.03-7.75L327.03-7.75L327.03-7.75Q328.91-10.62 330.03-14.95L330.03-14.95L330.03-14.95Q331.16-19.27 331.16-25.00L331.16-25.00L331.16-25.00Q331.16-30.74 330.03-35.11L330.03-35.11L330.03-35.11Q328.91-39.48 326.98-42.35L326.98-42.35L326.98-42.35Q325.05-45.21 322.47-46.67L322.47-46.67L322.47-46.67Q319.88-48.13 316.97-48.13L316.97-48.13L316.97-48.13Q311.14-48.13 307.00-42.30" fill="#000000" stroke="none" stroke-width="none" transform="translate(-231.94246673583984,27.38356409072876)" style="fill: rgb(0, 0, 0);"></path></g><g class="path" style="transform: matrix(1, 0, 0, 1, 0, 0); transform-origin: 126.855px -10.7764px; animation: 1.17647s linear -0.190588s infinite normal forwards running tremble-0e106bb4-33ba-4351-b7da-4fdf94e7fd82;"><path d="M363.40-59.60L363.40-59.60L363.40-4.79L371.02-3.38L371.02-3.38Q371.39-1.88 371.02 0.38L371.02 0.38L371.02 0.38Q365.10 0.09 358.89 0.09L358.89 0.09L358.89 0.09Q354.57 0.09 346.67 0.28L346.67 0.28L346.67 0.28Q346.11-1.50 346.67-3.38L346.67-3.38L354.10-4.42L354.10-4.42Q354.47-9.59 354.47-16.36L354.47-16.36L354.47-70.22L346.77-71.16L346.77-71.16Q346.39-72.57 346.77-74.73L346.77-74.73L346.77-74.73Q353.25-75.20 362.93-76.70L362.93-76.70L362.93-76.70Q363.78-75.76 363.87-74.82L363.87-74.82L363.87-74.82Q363.40-72.38 363.40-59.60" fill="#000000" stroke="none" stroke-width="none" transform="translate(-231.94246673583984,27.38356409072876)" style="fill: rgb(0, 0, 0);"></path></g><g class="path" style="transform: matrix(1, 0, 0, 1, 0, 0); transform-origin: 165.818px 2.28357px; animation: 1.17647s linear -0.0952941s infinite normal forwards running tremble-0e106bb4-33ba-4351-b7da-4fdf94e7fd82;"><path d="M416.33-26.51L416.33-26.51L386.81-26.51L386.81-26.51Q385.96-2.54 401.19-2.54L401.19-2.54L401.19-2.54Q407.68-2.54 414.45-8.27L414.45-8.27L414.45-8.27Q415.86-7.43 416.61-5.36L416.61-5.36L416.61-5.36Q410.12 1.88 400.16 1.88L400.16 1.88L400.16 1.88Q377.22 1.88 377.22-25.10L377.22-25.10L377.22-25.10Q377.22-37.88 383.99-44.98L383.99-44.98L383.99-44.98Q390.76-52.08 399.78-52.08L399.78-52.08L399.78-52.08Q409.65-52.08 413.98-45.21L413.98-45.21L413.98-45.21Q418.30-38.35 418.30-27.35L418.30-27.35L418.30-27.35Q417.36-26.60 416.33-26.51zM399.59-48.32L399.59-48.32L399.59-48.32Q394.71-48.32 391.28-43.24L391.28-43.24L391.28-43.24Q387.84-38.16 387.09-30.27L387.09-30.27L398.75-30.27L398.75-30.27Q405.70-30.27 408.71-31.11L408.71-31.11L408.71-31.11Q408.71-38.82 406.36-43.57L406.36-43.57L406.36-43.57Q404.01-48.32 399.59-48.32" fill="#000000" stroke="none" stroke-width="none" transform="translate(-231.94246673583984,27.38356409072876)" style="fill: rgb(0, 0, 0);"></path></g><g class="path" style="transform: matrix(1, 0, 0, 1, 0, 0); transform-origin: 211.783px 1.53357px; animation: 1.17647s linear 0s infinite normal forwards running tremble-0e106bb4-33ba-4351-b7da-4fdf94e7fd82;"><path d="M442.36-50.20L442.36-50.20L442.18-40.51L442.18-40.51Q444.53-44.84 448.71-48.46L448.71-48.46L448.71-48.46Q452.89-52.08 456.65-52.08L456.65-52.08L456.65-52.08Q459.57-52.08 461.82-51.42L461.82-51.42L461.82-51.42Q462.57-50.20 462.57-48.22L462.57-48.22L462.57-48.22Q462.57-45.12 461.26-42.02L461.26-42.02L461.26-42.02Q457.87-42.96 454.77-42.96L454.77-42.96L454.77-42.96Q447.06-42.96 442.08-35.44L442.08-35.44L441.89-18.99L441.89-4.79L452.33-3.38L452.33-3.38Q452.70-1.88 452.33 0.38L452.33 0.38L452.33 0.38Q446.41 0.09 438.79 0.09L438.79 0.09L438.79 0.09Q433.06 0.09 425.16 0.28L425.16 0.28L425.16 0.28Q424.60-1.50 425.16-3.38L425.16-3.38L432.59-4.42L432.59-4.42Q432.96-9.59 432.96-16.36L432.96-16.36L432.96-42.11L432.96-42.11Q432.96-43.99 432.68-45.59L432.68-45.59L425.26-46.53L425.26-46.53Q424.88-47.94 425.26-50.10L425.26-50.10L425.26-50.10Q431.74-50.57 441.42-52.08L441.42-52.08L441.42-52.08Q442.27-51.14 442.36-50.20" fill="#000000" stroke="none" stroke-width="none" transform="translate(-231.94246673583984,27.38356409072876)" style="fill: rgb(0, 0, 0);"></path></g></g>
</g>
</g>
</svg>