<svg xmlns="http://www.w3.org/2000/svg" xmlns:xlink="http://www.w3.org/1999/xlink" style="margin:auto;background:#1833ac;display:block;z-index:1;position:relative" width="1396" height="678" preserveAspectRatio="xMidYMid" viewBox="0 0 1396 678">
<g transform="translate(698,339) scale(1,1) translate(-698,-339)"><path id="path0" d="M 584.2947913985748 342.32696755211873
c 0 26.05812282882764 -6.375923670883358 7.484779961471769 -13.860703632355127 7.484779961471769
S 556.5733841338646 368.3850903809464 556.5733841338646 342.32696755211873
s 6.375923670883358 -7.484779961471769 13.860703632355127 -7.484779961471769
S 584.2947913985748 316.26884472329107 584.2947913985748 342.32696755211873
z" fill="none" stroke="none"></path>
<circle cx="0" cy="0" r="7.498071990539214" fill="#de9dd6">
  <animateMotion begin="-2.167330823888871s" dur="10s" repeatCount="indefinite">
    <mpath xlink:href="#path0"></mpath>
  </animateMotion>
</circle><path id="path1" d="M 938.5289260851639 293.1089321472764
c 0 31.769376772094393 -7.77335814636352 9.125246519644135 -16.898604666007657 9.125246519644135
S 904.7317167531487 324.8783089193708 904.7317167531487 293.1089321472764
s 7.77335814636352 -9.125246519644135 16.898604666007657 -9.125246519644135
S 938.5289260851639 261.339555375182 938.5289260851639 293.1089321472764
z" fill="none" stroke="none"></path>
<circle cx="0" cy="0" r="4.533618877377411" fill="#e0ff77">
  <animateMotion begin="-8.531029360956639s" dur="10s" repeatCount="indefinite">
    <mpath xlink:href="#path1"></mpath>
  </animateMotion>
</circle><path id="path2" d="M 190.6285598340725 590.3192616227474
c 0 33.74506911131596 -8.256772229364543 9.692732617080116 -17.94950484644466 9.692732617080116
S 154.72955014118318 624.0643307340633 154.72955014118318 590.3192616227474
s 8.256772229364543 -9.692732617080116 17.94950484644466 -9.692732617080116
S 190.6285598340725 556.5741925114314 190.6285598340725 590.3192616227474
z" fill="none" stroke="none"></path>
<circle cx="0" cy="0" r="7.45902299957473" fill="#de9dd6">
  <animateMotion begin="-9.463043277612492s" dur="10s" repeatCount="indefinite">
    <mpath xlink:href="#path2"></mpath>
  </animateMotion>
</circle><path id="path3" d="M 314.0847860412348 342.3425723422559
c 0 33.694190051391175 -8.244323097680818 9.678118419016613 -17.922441516697432 9.678118419016613
S 278.23990300784 376.03676239364705 278.23990300784 342.3425723422559
s 8.244323097680818 -9.678118419016613 17.922441516697432 -9.678118419016613
S 314.0847860412348 308.64838229086473 314.0847860412348 342.3425723422559
z" fill="none" stroke="none"></path>
<circle cx="0" cy="0" r="6.778247231979133" fill="#e0ff77">
  <animateMotion begin="-9.728736047715092s" dur="10s" repeatCount="indefinite">
    <mpath xlink:href="#path3"></mpath>
  </animateMotion>
</circle><path id="path4" d="M 630.4365427819082 562.7149151708479
c 0 29.294450414108503 -7.167791058771229 8.4143634168184 -15.582154475589629 8.4143634168184
S 599.272233830729 592.0093655849564 599.272233830729 562.7149151708479
s 7.167791058771229 -8.4143634168184 15.582154475589629 -8.4143634168184
S 630.4365427819082 533.4204647567394 630.4365427819082 562.7149151708479
z" fill="none" stroke="none"></path>
<circle cx="0" cy="0" r="7.252742070340879" fill="#ff708e">
  <animateMotion begin="-8.268052886402693s" dur="10s" repeatCount="indefinite">
    <mpath xlink:href="#path4"></mpath>
  </animateMotion>
</circle><path id="path5" d="M 1387.9507129757899 555.4710538543222
c 0 19.79165930489788 -4.842640042687778 5.684838310981306 -10.527478353669084 5.684838310981306
S 1366.8957562684518 575.2627131592201 1366.8957562684518 555.4710538543222
s 4.842640042687778 -5.684838310981306 10.527478353669084 -5.684838310981306
S 1387.9507129757899 535.6793945494244 1387.9507129757899 555.4710538543222
z" fill="none" stroke="none"></path>
<circle cx="0" cy="0" r="5.158051028888154" fill="#e0ff77">
  <animateMotion begin="-4.8532835546346265s" dur="10s" repeatCount="indefinite">
    <mpath xlink:href="#path5"></mpath>
  </animateMotion>
</circle><path id="path6" d="M 684.2253668137072 236.0962965295814
c 0 21.439825910896815 -5.245914850538581 6.158247868023553 -11.404162718562134 6.158247868023553
S 661.4170413765829 257.5361224404782 661.4170413765829 236.0962965295814
s 5.245914850538581 -6.158247868023553 11.404162718562134 -6.158247868023553
S 684.2253668137072 214.65647061868458 684.2253668137072 236.0962965295814
z" fill="none" stroke="none"></path>
<circle cx="0" cy="0" r="7.521908977434626" fill="#9df871">
  <animateMotion begin="-4.6735195289317915s" dur="10s" repeatCount="indefinite">
    <mpath xlink:href="#path6"></mpath>
  </animateMotion>
</circle><path id="path7" d="M 820.9034478060487 70.4249931104965
c 0 33.78125734487881 -8.265626797151198 9.703127109699233 -17.96875390685043 9.703127109699233
S 784.9659399923478 104.20625045537531 784.9659399923478 70.4249931104965
s 8.265626797151198 -9.703127109699233 17.96875390685043 -9.703127109699233
S 820.9034478060487 36.64373576561769 820.9034478060487 70.4249931104965
z" fill="none" stroke="none"></path>
<circle cx="0" cy="0" r="4.558046511681262" fill="#de9dd6">
  <animateMotion begin="-1.6749520625249659s" dur="10s" repeatCount="indefinite">
    <mpath xlink:href="#path7"></mpath>
  </animateMotion>
</circle><path id="path8" d="M 196.50608737742832 667.5181510448343
c 0 28.556644161478463 -6.987263996957495 8.202440344254452 -15.189704341211947 8.202440344254452
S 166.12667869500441 696.0747952063128 166.12667869500441 667.5181510448343
s 6.987263996957495 -8.202440344254452 15.189704341211947 -8.202440344254452
S 196.50608737742832 638.9615068833558 196.50608737742832 667.5181510448343
z" fill="none" stroke="none"></path>
<circle cx="0" cy="0" r="6.18346448172981" fill="#9df871">
  <animateMotion begin="-2.1450264548554165s" dur="10s" repeatCount="indefinite">
    <mpath xlink:href="#path8"></mpath>
  </animateMotion>
</circle><path id="path9" d="M 617.1422507780271 447.3109750995301
c 0 35.98014201903003 -8.80365177061373 10.334721643763945 -19.138373414377675 10.334721643763945
S 578.8655039492717 483.2911171185601 578.8655039492717 447.3109750995301
s 8.80365177061373 -10.334721643763945 19.138373414377675 -10.334721643763945
S 617.1422507780271 411.33083308050004 617.1422507780271 447.3109750995301
z" fill="none" stroke="none"></path>
<circle cx="0" cy="0" r="7.602881598158876" fill="#51cacc">
  <animateMotion begin="-8.01746134470109s" dur="10s" repeatCount="indefinite">
    <mpath xlink:href="#path9"></mpath>
  </animateMotion>
</circle><path id="path10" d="M 1163.3379567224322 663.193645153183
c 0 20.955206384406978 -5.127337732354898 6.019048642329664 -11.146386374684562 6.019048642329664
S 1141.0451839730629 684.14885153759 1141.0451839730629 663.193645153183
s 5.127337732354898 -6.019048642329664 11.146386374684562 -6.019048642329664
S 1163.3379567224322 642.238438768776 1163.3379567224322 663.193645153183
z" fill="none" stroke="none"></path>
<circle cx="0" cy="0" r="5.117573114243969" fill="#51cacc">
  <animateMotion begin="-5.288756679705s" dur="10s" repeatCount="indefinite">
    <mpath xlink:href="#path10"></mpath>
  </animateMotion>
</circle><path id="path11" d="M 963.4082350215066 616.4766319719079
c 0 30.458628117218357 -7.452643049957683 8.748754884732932 -16.201397934690615 8.748754884732932
S 931.0054391521254 646.9352600891262 931.0054391521254 616.4766319719079
s 7.452643049957683 -8.748754884732932 16.201397934690615 -8.748754884732932
S 963.4082350215066 586.0180038546895 963.4082350215066 616.4766319719079
z" fill="none" stroke="none"></path>
<circle cx="0" cy="0" r="6.525676581346392" fill="#51cacc">
  <animateMotion begin="-2.0467787263623394s" dur="10s" repeatCount="indefinite">
    <mpath xlink:href="#path11"></mpath>
  </animateMotion>
</circle><path id="path12" d="M 122.99861764693013 290.5492809129011
c 0 36.976051296105574 -9.047331700110936 10.620780691434579 -19.668112391545517 10.620780691434579
S 83.66239286383909 327.5253322090067 83.66239286383909 290.5492809129011
s 9.047331700110936 -10.620780691434579 19.668112391545517 -10.620780691434579
S 122.99861764693013 253.57322961679554 122.99861764693013 290.5492809129011
z" fill="none" stroke="none"></path>
<circle cx="0" cy="0" r="6.071813138317683" fill="#ff708e">
  <animateMotion begin="-3.353795006295568s" dur="10s" repeatCount="indefinite">
    <mpath xlink:href="#path12"></mpath>
  </animateMotion>
</circle><path id="path13" d="M 1392.311329657703 472.6823620303395
c 0 27.686440578670087 -6.774341843717148 7.952488251320132 -14.726830095037279 7.952488251320132
S 1362.8576694676285 500.3688026090096 1362.8576694676285 472.6823620303395
s 6.774341843717148 -7.952488251320132 14.726830095037279 -7.952488251320132
S 1392.311329657703 444.9959214516694 1392.311329657703 472.6823620303395
z" fill="none" stroke="none"></path>
<circle cx="0" cy="0" r="6.739524134013537" fill="#de9dd6">
  <animateMotion begin="-6.080831089093859s" dur="10s" repeatCount="indefinite">
    <mpath xlink:href="#path13"></mpath>
  </animateMotion>
</circle><path id="path14" d="M 409.0978541345251 286.26027886252035
c 0 23.421062135707455 -5.730685416183738 6.727326358128738 -12.458011774312476 6.727326358128738
S 384.1818305859002 309.6813409982278 384.1818305859002 286.26027886252035
s 5.730685416183738 -6.727326358128738 12.458011774312476 -6.727326358128738
S 409.0978541345251 262.8392167268129 409.0978541345251 286.26027886252035
z" fill="none" stroke="none"></path>
<circle cx="0" cy="0" r="5.100791283422775" fill="#51cacc">
  <animateMotion begin="-5.746370183904799s" dur="10s" repeatCount="indefinite">
    <mpath xlink:href="#path14"></mpath>
  </animateMotion>
</circle><path id="path15" d="M 1204.78062783839 192.58585335642124
c 0 35.72916620092441 -8.742242793843205 10.262632844946374 -19.00487563878958 10.262632844946374
S 1166.7708765608108 228.31501955734564 1166.7708765608108 192.58585335642124
s 8.742242793843205 -10.262632844946374 19.00487563878958 -10.262632844946374
S 1204.78062783839 156.85668715549684 1204.78062783839 192.58585335642124
z" fill="none" stroke="none"></path>
<circle cx="0" cy="0" r="7.293472276784776" fill="#de9dd6">
  <animateMotion begin="-3.91202327681639s" dur="10s" repeatCount="indefinite">
    <mpath xlink:href="#path15"></mpath>
  </animateMotion>
</circle><path id="path16" d="M 1216.6611871425694 403.6467849359169
c 0 27.74017776390975 -6.787490303935363 7.967923400271949 -14.755413704207312 7.967923400271949
S 1187.1503597341548 431.38696269982665 1187.1503597341548 403.6467849359169
s 6.787490303935363 -7.967923400271949 14.755413704207312 -7.967923400271949
S 1216.6611871425694 375.90660717200717 1216.6611871425694 403.6467849359169
z" fill="none" stroke="none"></path>
<circle cx="0" cy="0" r="7.058068054224212" fill="#e0ff77">
  <animateMotion begin="-8.14225743418086s" dur="10s" repeatCount="indefinite">
    <mpath xlink:href="#path16"></mpath>
  </animateMotion>
</circle><path id="path17" d="M 390.6899793833803 174.1960250735513
c 0 29.504805766437823 -7.219260985404998 8.47478463504065 -15.69404562044565 8.47478463504065
S 359.301888142489 203.70083083998912 359.301888142489 174.1960250735513
s 7.219260985404998 -8.47478463504065 15.69404562044565 -8.47478463504065
S 390.6899793833803 144.6912193071135 390.6899793833803 174.1960250735513
z" fill="none" stroke="none"></path>
<circle cx="0" cy="0" r="7.985223791690871" fill="#ff708e">
  <animateMotion begin="-9.553379941504378s" dur="10s" repeatCount="indefinite">
    <mpath xlink:href="#path17"></mpath>
  </animateMotion>
</circle><path id="path18" d="M 519.4915692890768 322.3648505559634
c 0 18.97947076220837 -4.6439130588382165 5.451550112549212 -10.09546317138743 5.451550112549212
S 499.30064294630193 341.3443213181718 499.30064294630193 322.3648505559634
s 4.6439130588382165 -5.451550112549212 10.09546317138743 -5.451550112549212
S 519.4915692890768 303.385379793755 519.4915692890768 322.3648505559634
z" fill="none" stroke="none"></path>
<circle cx="0" cy="0" r="7.104006573902778" fill="#e0ff77">
  <animateMotion begin="-2.3925400974365862s" dur="10s" repeatCount="indefinite">
    <mpath xlink:href="#path18"></mpath>
  </animateMotion>
</circle><path id="path19" d="M 1350.2028495822933 274.310080089473
c 0 29.765128899569024 -7.282957071171143 8.549558300940038 -15.832515372111182 8.549558300940038
S 1318.537818838071 304.07520898904204 1318.537818838071 274.310080089473
s 7.282957071171143 -8.549558300940038 15.832515372111182 -8.549558300940038
S 1350.2028495822933 244.54495118990397 1350.2028495822933 274.310080089473
z" fill="none" stroke="none"></path>
<circle cx="0" cy="0" r="6.799714698379499" fill="#ff708e">
  <animateMotion begin="-9.294258948161518s" dur="10s" repeatCount="indefinite">
    <mpath xlink:href="#path19"></mpath>
  </animateMotion>
</circle><path id="path20" d="M 448.7348432263891 404.3943669160671
c 0 23.986409474016217 -5.869015084067797 6.88971335955785 -12.758728443625646 6.88971335955785
S 423.21738633913776 428.3807763900833 423.21738633913776 404.3943669160671
s 5.869015084067797 -6.88971335955785 12.758728443625646 -6.88971335955785
S 448.7348432263891 380.4079574420509 448.7348432263891 404.3943669160671
z" fill="none" stroke="none"></path>
<circle cx="0" cy="0" r="6.820350102575273" fill="#e0ff77">
  <animateMotion begin="-8.928928612146157s" dur="10s" repeatCount="indefinite">
    <mpath xlink:href="#path20"></mpath>
  </animateMotion>
</circle><path id="path21" d="M 860.0848975046198 473.39682697524404
c 0 20.330668037880805 -4.9745251582048775 5.8396599683274655 -10.814185126532344 5.8396599683274655
S 838.456527251555 493.72749501312484 838.456527251555 473.39682697524404
s 4.9745251582048775 -5.8396599683274655 10.814185126532344 -5.8396599683274655
S 860.0848975046198 453.06615893736324 860.0848975046198 473.39682697524404
z" fill="none" stroke="none"></path>
<circle cx="0" cy="0" r="6.5034830023051375" fill="#51cacc">
  <animateMotion begin="-7.66292562517391s" dur="10s" repeatCount="indefinite">
    <mpath xlink:href="#path21"></mpath>
  </animateMotion>
</circle><path id="path22" d="M 394.1741781578883 242.7260644118114
c 0 31.896024912141733 -7.8043465210559555 9.161624176891774 -16.96597069794773 9.161624176891774
S 360.24223676199284 274.6220893239531 360.24223676199284 242.7260644118114
s 7.8043465210559555 -9.161624176891774 16.96597069794773 -9.161624176891774
S 394.1741781578883 210.83003949966965 394.1741781578883 242.7260644118114
z" fill="none" stroke="none"></path>
<circle cx="0" cy="0" r="6.0731176065098795" fill="#e0ff77">
  <animateMotion begin="-8.95694968800003s" dur="10s" repeatCount="indefinite">
    <mpath xlink:href="#path22"></mpath>
  </animateMotion>
</circle><path id="path23" d="M 761.0753327787618 131.1539933741209
c 0 34.51265124632237 -8.444584879419303 9.913208336709618 -18.357793216128922 9.913208336709618
S 724.3597463465039 165.66664462044326 724.3597463465039 131.1539933741209
s 8.444584879419303 -9.913208336709618 18.357793216128922 -9.913208336709618
S 761.0753327787618 96.64134212779851 761.0753327787618 131.1539933741209
z" fill="none" stroke="none"></path>
<circle cx="0" cy="0" r="4.8032813491707635" fill="#e0ff77">
  <animateMotion begin="-6.307740329636086s" dur="10s" repeatCount="indefinite">
    <mpath xlink:href="#path23"></mpath>
  </animateMotion>
</circle><path id="path24" d="M 1122.7788215397638 301.31750130723196
c 0 28.040219659156367 -6.860904810219111 8.054105646778957 -14.915010456998068 8.054105646778957
S 1092.9488006257677 329.35772096638834 1092.9488006257677 301.31750130723196
s 6.860904810219111 -8.054105646778957 14.915010456998068 -8.054105646778957
S 1122.7788215397638 273.2772816480756 1122.7788215397638 301.31750130723196
z" fill="none" stroke="none"></path>
<circle cx="0" cy="0" r="7.591603454482786" fill="#de9dd6">
  <animateMotion begin="-4.78460997784691s" dur="10s" repeatCount="indefinite">
    <mpath xlink:href="#path24"></mpath>
  </animateMotion>
</circle><path id="path25" d="M 892.4553110717792 319.61291347884185
c 0 20.1792097123446 -4.937466206211976 5.796155981205364 -10.733622187417339 5.796155981205364
S 870.9880666969444 339.7921231911864 870.9880666969444 319.61291347884185
s 4.937466206211976 -5.796155981205364 10.733622187417339 -5.796155981205364
S 892.4553110717792 299.4337037664973 892.4553110717792 319.61291347884185
z" fill="none" stroke="none"></path>
<circle cx="0" cy="0" r="7.899186181702483" fill="#9df871">
  <animateMotion begin="-6.7150264301201705s" dur="10s" repeatCount="indefinite">
    <mpath xlink:href="#path25"></mpath>
  </animateMotion>
</circle><path id="path26" d="M 176.6875656629855 359.4231999950452
c 0 21.811669213317888 -5.336897786237355 6.265053922974287 -11.601951709211642 6.265053922974287
S 153.4836622445622 381.2348692083631 153.4836622445622 359.4231999950452
s 5.336897786237355 -6.265053922974287 11.601951709211642 -6.265053922974287
S 176.6875656629855 337.6115307817273 176.6875656629855 359.4231999950452
z" fill="none" stroke="none"></path>
<circle cx="0" cy="0" r="7.11059262199554" fill="#9df871">
  <animateMotion begin="-3.852692805333764s" dur="10s" repeatCount="indefinite">
    <mpath xlink:href="#path26"></mpath>
  </animateMotion>
</circle><path id="path27" d="M 1000.9611935439776 399.2893190657409
c 0 31.232954402006715 -7.642105864320791 8.971167753767887 -16.613273618088677 8.971167753767887
S 967.7346463078003 430.52227346774765 967.7346463078003 399.2893190657409
s 7.642105864320791 -8.971167753767887 16.613273618088677 -8.971167753767887
S 1000.9611935439776 368.0563646637342 1000.9611935439776 399.2893190657409
z" fill="none" stroke="none"></path>
<circle cx="0" cy="0" r="6.510939471603208" fill="#9df871">
  <animateMotion begin="-2.144070960778095s" dur="10s" repeatCount="indefinite">
    <mpath xlink:href="#path27"></mpath>
  </animateMotion>
</circle><path id="path28" d="M 83.48181277449407 145.07433739952114
c 0 36.67782261616656 -8.974360852891815 10.535119262090394 -19.50948011498221 10.535119262090394
S 44.462852544529646 181.7521600156877 44.462852544529646 145.07433739952114
s 8.974360852891815 -10.535119262090394 19.50948011498221 -10.535119262090394
S 83.48181277449407 108.39651478335458 83.48181277449407 145.07433739952114
z" fill="none" stroke="none"></path>
<circle cx="0" cy="0" r="5.133331539328071" fill="#e0ff77">
  <animateMotion begin="-5.011937316564707s" dur="10s" repeatCount="indefinite">
    <mpath xlink:href="#path28"></mpath>
  </animateMotion>
</circle><path id="path29" d="M 140.96379141486665 336.4919103569364
c 0 29.76648222783874 -7.283288204683946 8.549947022889851 -15.833235227573796 8.549947022889851
S 109.29732095971906 366.25839258477515 109.29732095971906 336.4919103569364
s 7.283288204683946 -8.549947022889851 15.833235227573796 -8.549947022889851
S 140.96379141486665 306.7254281290976 140.96379141486665 336.4919103569364
z" fill="none" stroke="none"></path>
<circle cx="0" cy="0" r="6.700181581630363" fill="#ff708e">
  <animateMotion begin="-3.245115550053157s" dur="10s" repeatCount="indefinite">
    <mpath xlink:href="#path29"></mpath>
  </animateMotion>
</circle></g>
</svg>